<svg width="1400" height="328" viewBox="0 0 1400 328" fill="none" xmlns="http://www.w3.org/2000/svg">
<path d="M460.442 234.708C453.995 234.708 448.188 233.575 443.021 231.308C437.899 228.997 433.837 225.597 430.834 221.107C427.875 216.617 426.396 211.081 426.396 204.498C426.396 198.831 427.456 194.145 429.575 190.439C431.695 186.734 434.587 183.77 438.252 181.547C441.917 179.323 446.046 177.645 450.639 176.512C455.275 175.335 460.066 174.485 465.012 173.961C470.973 173.351 475.808 172.806 479.518 172.327C483.227 171.804 485.921 171.019 487.599 169.973C489.321 168.883 490.182 167.205 490.182 164.938V164.545C490.182 159.619 488.702 155.805 485.744 153.102C482.785 150.4 478.524 149.048 472.96 149.048C467.087 149.048 462.429 150.312 458.984 152.841C455.584 155.369 453.288 158.355 452.096 161.799L429.708 158.66C431.474 152.557 434.389 147.457 438.451 143.359C442.514 139.218 447.481 136.123 453.354 134.074C459.227 131.982 465.718 130.935 472.828 130.935C477.729 130.935 482.609 131.502 487.466 132.635C492.323 133.769 496.761 135.643 500.78 138.259C504.798 140.831 508.021 144.34 510.45 148.787C512.923 153.233 514.159 158.791 514.159 165.461V232.681H491.109V218.884H490.314C488.857 221.674 486.804 224.289 484.154 226.73C481.549 229.128 478.259 231.068 474.285 232.55C470.355 233.989 465.74 234.708 460.442 234.708ZM466.668 217.314C471.481 217.314 475.654 216.377 479.186 214.503C482.719 212.585 485.435 210.056 487.334 206.918C489.276 203.779 490.248 200.357 490.248 196.651V184.816C489.497 185.426 488.217 185.993 486.406 186.516C484.64 187.039 482.653 187.497 480.445 187.889C478.237 188.282 476.051 188.63 473.888 188.936C471.724 189.241 469.847 189.502 468.257 189.72C464.681 190.2 461.479 190.984 458.653 192.074C455.827 193.164 453.597 194.69 451.963 196.651C450.329 198.57 449.513 201.054 449.513 204.106C449.513 208.465 451.124 211.756 454.348 213.98C457.571 216.203 461.678 217.314 466.668 217.314Z" fill="#323232"/>
<path d="M586.071 132.243V150.552H525.928V132.243H586.071ZM540.964 232.681V122.762C540.964 116.005 542.377 110.381 545.203 105.891C548.073 101.401 551.915 98.0446 556.728 95.8213C561.541 93.5981 566.884 92.4865 572.757 92.4865C576.908 92.4865 580.595 92.8134 583.819 93.4673C587.042 94.1212 589.427 94.7097 590.972 95.2328L586.203 113.542C585.188 113.237 583.907 112.932 582.362 112.626C580.816 112.278 579.094 112.103 577.195 112.103C572.735 112.103 569.578 113.171 567.723 115.307C565.913 117.4 565.008 120.408 565.008 124.331V232.681H540.964Z" fill="#323232"/>
<path d="M651.922 132.243V150.552H593.435V132.243H651.922ZM607.875 108.18H631.852V202.471C631.852 205.653 632.338 208.095 633.309 209.795C634.325 211.451 635.65 212.585 637.284 213.195C638.918 213.805 640.728 214.11 642.715 214.11C644.216 214.11 645.585 214.001 646.822 213.783C648.102 213.565 649.074 213.369 649.736 213.195L653.777 231.7C652.496 232.136 650.663 232.616 648.279 233.139C645.939 233.662 643.068 233.967 639.668 234.054C633.663 234.228 628.253 233.335 623.44 231.373C618.627 229.368 614.807 226.273 611.981 222.088C609.199 217.903 607.831 212.672 607.875 206.394V108.18Z" fill="#323232"/>
<path d="M712.193 234.643C701.992 234.643 693.183 232.55 685.764 228.365C678.39 224.137 672.716 218.165 668.741 210.449C664.767 202.689 662.78 193.556 662.78 183.051C662.78 172.719 664.767 163.652 668.741 155.849C672.76 148.002 678.368 141.899 685.565 137.54C692.763 133.137 701.219 130.935 710.934 130.935C717.204 130.935 723.122 131.938 728.685 133.943C734.293 135.905 739.239 138.956 743.522 143.098C747.85 147.239 751.25 152.514 753.723 158.922C756.196 165.286 757.432 172.872 757.432 181.677V188.936H674.04V172.981H734.448C734.404 168.447 733.41 164.415 731.467 160.884C729.524 157.309 726.809 154.497 723.32 152.448C719.876 150.4 715.858 149.375 711.265 149.375C706.364 149.375 702.058 150.552 698.349 152.906C694.64 155.217 691.748 158.268 689.672 162.061C687.641 165.81 686.603 169.929 686.559 174.419V188.347C686.559 194.188 687.641 199.202 689.805 203.387C691.968 207.528 694.993 210.71 698.879 212.933C702.765 215.113 707.313 216.203 712.524 216.203C716.012 216.203 719.169 215.723 721.996 214.764C724.822 213.762 727.272 212.301 729.348 210.383C731.423 208.465 732.991 206.089 734.051 203.256L756.438 205.741C755.025 211.582 752.332 216.682 748.358 221.042C744.428 225.357 739.394 228.714 733.256 231.112C727.118 233.466 720.097 234.643 712.193 234.643Z" fill="#323232"/>
<path d="M773.987 232.681V132.243H797.236V148.983H798.295C800.15 143.185 803.329 138.717 807.833 135.578C812.382 132.396 817.57 130.805 823.399 130.805C824.724 130.805 826.203 130.87 827.837 131.001C829.515 131.088 830.906 131.24 832.01 131.458V153.233C830.994 152.884 829.382 152.579 827.174 152.318C825.011 152.012 822.913 151.86 820.882 151.86C816.51 151.86 812.58 152.797 809.092 154.672C805.648 156.503 802.932 159.053 800.945 162.322C798.958 165.592 797.964 169.362 797.964 173.634V232.681H773.987Z" fill="#323232"/>
<path d="M918.261 154.737L904.219 158.66C903.336 156.35 902.034 154.105 900.311 151.925C898.633 149.702 896.337 147.871 893.423 146.433C890.508 144.994 886.777 144.275 882.229 144.275C876.003 144.275 870.814 145.691 866.663 148.525C862.557 151.315 860.503 154.868 860.503 159.183C860.503 163.02 861.916 166.049 864.742 168.273C867.568 170.496 871.984 172.348 877.99 173.831L893.092 177.492C902.188 179.672 908.966 183.007 913.426 187.497C917.886 191.943 920.116 197.676 920.116 204.694C920.116 210.449 918.438 215.593 915.082 220.126C911.77 224.66 907.134 228.234 901.172 230.85C895.211 233.466 888.278 234.773 880.374 234.773C869.997 234.773 861.409 232.55 854.608 228.104C847.808 223.657 843.503 217.162 841.692 208.618L856.529 204.956C857.942 210.361 860.614 214.416 864.544 217.118C868.518 219.821 873.706 221.172 880.109 221.172C887.395 221.172 893.18 219.647 897.463 216.595C901.791 213.5 903.954 209.795 903.954 205.479C903.954 201.992 902.718 199.071 900.245 196.717C897.772 194.319 893.975 192.532 888.852 191.355L871.896 187.432C862.579 185.252 855.734 181.874 851.363 177.296C847.035 172.675 844.871 166.899 844.871 159.968C844.871 154.301 846.483 149.288 849.707 144.929C852.974 140.569 857.412 137.147 863.02 134.663C868.672 132.178 875.075 130.935 882.229 130.935C892.297 130.935 900.201 133.115 905.942 137.474C911.726 141.834 915.833 147.588 918.261 154.737Z" fill="#323232"/>
<path d="M955.548 172.261V232.681H939.916V98.7638H955.548V147.937H956.873C959.257 142.749 962.834 138.629 967.603 135.578C972.416 132.483 978.819 130.935 986.812 130.935C993.744 130.935 999.816 132.309 1005.03 135.055C1010.24 137.758 1014.28 141.921 1017.15 147.544C1020.06 153.124 1021.52 160.23 1021.52 168.861V232.681H1005.89V169.907C1005.89 161.93 1003.79 155.761 999.595 151.402C995.444 146.999 989.682 144.798 982.308 144.798C977.185 144.798 972.593 145.866 968.53 148.002C964.512 150.138 961.333 153.255 958.992 157.353C956.696 161.45 955.548 166.42 955.548 172.261Z" fill="#323232"/>
<path d="M1087.72 234.773C1078.53 234.773 1070.47 232.616 1063.54 228.3C1056.65 223.984 1051.27 217.947 1047.38 210.187C1043.54 202.428 1041.62 193.36 1041.62 182.985C1041.62 172.523 1043.54 163.39 1047.38 155.587C1051.27 147.784 1056.65 141.725 1063.54 137.409C1070.47 133.093 1078.53 130.935 1087.72 130.935C1096.9 130.935 1104.94 133.093 1111.83 137.409C1118.76 141.725 1124.15 147.784 1127.99 155.587C1131.88 163.39 1133.82 172.523 1133.82 182.985C1133.82 193.36 1131.88 202.428 1127.99 210.187C1124.15 217.947 1118.76 223.984 1111.83 228.3C1104.94 232.616 1096.9 234.773 1087.72 234.773ZM1087.72 220.911C1094.7 220.911 1100.44 219.145 1104.94 215.614C1109.44 212.083 1112.78 207.441 1114.94 201.686C1117.11 195.932 1118.19 189.698 1118.19 182.985C1118.19 176.272 1117.11 170.016 1114.94 164.218C1112.78 158.421 1109.44 153.734 1104.94 150.16C1100.44 146.585 1094.7 144.798 1087.72 144.798C1080.74 144.798 1075 146.585 1070.5 150.16C1065.99 153.734 1062.66 158.421 1060.5 164.218C1058.33 170.016 1057.25 176.272 1057.25 182.985C1057.25 189.698 1058.33 195.932 1060.5 201.686C1062.66 207.441 1065.99 212.083 1070.5 215.614C1075 219.145 1080.74 220.911 1087.72 220.911Z" fill="#323232"/>
<path d="M1195.28 234.773C1186.1 234.773 1178.04 232.616 1171.11 228.3C1164.22 223.984 1158.83 217.947 1154.94 210.187C1151.1 202.428 1149.18 193.36 1149.18 182.985C1149.18 172.523 1151.1 163.39 1154.94 155.587C1158.83 147.784 1164.22 141.725 1171.11 137.409C1178.04 133.093 1186.1 130.935 1195.28 130.935C1204.47 130.935 1212.5 133.093 1219.39 137.409C1226.32 141.725 1231.71 147.784 1235.55 155.587C1239.44 163.39 1241.38 172.523 1241.38 182.985C1241.38 193.36 1239.44 202.428 1235.55 210.187C1231.71 217.947 1226.32 223.984 1219.39 228.3C1212.5 232.616 1204.47 234.773 1195.28 234.773ZM1195.28 220.911C1202.26 220.911 1208 219.145 1212.5 215.614C1217.01 212.083 1220.34 207.441 1222.5 201.686C1224.67 195.932 1225.75 189.698 1225.75 182.985C1225.75 176.272 1224.67 170.016 1222.5 164.218C1220.34 158.421 1217.01 153.734 1212.5 150.16C1208 146.585 1202.26 144.798 1195.28 144.798C1188.3 144.798 1182.56 146.585 1178.06 150.16C1173.56 153.734 1170.22 158.421 1168.06 164.218C1165.89 170.016 1164.81 176.272 1164.81 182.985C1164.81 189.698 1165.89 195.932 1168.06 201.686C1170.22 207.441 1173.56 212.083 1178.06 215.614C1182.56 219.145 1188.3 220.911 1195.28 220.911Z" fill="#323232"/>
<path d="M1305.76 132.243V145.321H1253.04V132.243H1305.76ZM1268.4 108.18H1284.03V203.91C1284.03 208.269 1284.67 211.538 1285.95 213.718C1287.28 215.854 1288.96 217.293 1290.99 218.034C1293.06 218.731 1295.25 219.08 1297.55 219.08C1299.27 219.08 1300.68 218.993 1301.79 218.818C1302.89 218.6 1303.77 218.426 1304.43 218.295L1307.61 232.158C1306.55 232.55 1305.07 232.942 1303.18 233.335C1301.28 233.771 1298.87 233.989 1295.96 233.989C1291.54 233.989 1287.21 233.051 1282.97 231.177C1278.78 229.302 1275.29 226.447 1272.51 222.611C1269.77 218.775 1268.4 213.936 1268.4 208.095V108.18Z" fill="#323232"/>
<g clip-path="url(#clip0_2_8)">
<mask id="mask0_2_8" style="mask-type:alpha" maskUnits="userSpaceOnUse" x="57" y="58" width="228" height="213">
<path d="M205 270.5C194.884 270.364 184.829 268.922 175.085 266.208C156.804 261.223 138.723 252.251 127.938 242.798C109.799 226.913 102.126 204.267 108.856 186.453C112.922 175.671 125.687 157.599 165.432 157.599H223.964C222.112 150.527 219.901 143.553 217.34 136.705C203.114 98.9023 182.534 79.7366 156.167 79.7366C139.961 79.7366 126.418 88.1672 114.761 105.51C104.601 120.643 96.3147 142.078 90.1502 169.216C79.389 216.624 79.0237 264.915 79.0237 265.397L57.2891 265.303C57.2891 263.245 57.6426 214.426 68.8871 164.736C75.6291 134.917 84.9642 110.978 96.6212 93.5641C112.404 70.0479 132.441 58.0547 156.167 58.0547C192.022 58.0547 220.204 82.6174 237.684 129.085C241.144 138.409 244.04 147.93 246.359 157.599H284.159V179.281H250.803C253.379 194.073 254.79 209.044 255.022 224.056C255.022 243.727 246.324 258.483 230.529 265.62C222.526 269.218 213.592 270.5 205 270.5ZM165.467 179.281C145.96 179.281 132.736 184.678 129.188 194.096C125.64 203.514 131.062 216.683 142.259 226.501C150.616 233.803 165.738 241.187 180.813 245.314C197.48 249.853 212.331 250.017 221.56 245.89C226.593 243.621 233.288 238.835 233.288 224.079C232.99 209.045 231.448 194.062 228.679 179.281H165.467Z" fill="#D9D9D9"/>
</mask>
<g mask="url(#mask0_2_8)">
<g filter="url(#filter0_f_2_8)">
<path d="M189.675 22.5547L182.648 214.477L306.344 182.977V22.5547H189.675Z" fill="url(#paint0_linear_2_8)"/>
</g>
<g filter="url(#filter1_f_2_8)">
<path d="M179.266 214.233L306.438 168.397L305.92 309.675H167.207L179.266 214.233Z" fill="url(#paint1_linear_2_8)"/>
</g>
<g filter="url(#filter2_f_2_8)">
<path d="M204.836 22.5547L193.417 228.344C104.16 158.73 88.3642 147.179 25.6719 95.1731V22.5547H204.836Z" fill="url(#paint2_linear_2_8)"/>
</g>
<g filter="url(#filter3_f_2_8)">
<path d="M35.6562 87.4531L185.977 212.322L35.6562 239.437V87.4531Z" fill="url(#paint3_linear_2_8)"/>
</g>
<g filter="url(#filter4_f_2_8)">
<path d="M187.086 306V215.586L33.1072 227.576L32.3281 306H187.086Z" fill="url(#paint4_linear_2_8)"/>
</g>
<g filter="url(#filter5_f_2_8)">
<path d="M100.555 231.949L96.1172 191.734L131.062 162.336L185.977 213.343L131.062 211.703L100.555 231.949Z" fill="url(#paint5_linear_2_8)"/>
</g>
<rect x="80.7588" y="117.3" width="30.8227" height="23.9511" transform="rotate(24.1179 80.7588 117.3)" fill="url(#paint6_linear_2_8)"/>
<rect x="257.523" y="206.242" width="25.4358" height="22.4359" transform="rotate(167.159 257.523 206.242)" fill="url(#paint7_linear_2_8)"/>
<g filter="url(#filter6_f_2_8)">
<rect x="103.085" y="215.711" width="60.4064" height="46.3587" transform="rotate(-16.5818 103.085 215.711)" fill="url(#paint8_linear_2_8)"/>
</g>
<g filter="url(#filter7_f_2_8)">
<rect x="45.0185" y="208.74" width="49.2598" height="37.8042" fill="url(#paint9_linear_2_8)"/>
</g>
</g>
</g>
<defs>
<filter id="filter0_f_2_8" x="171.648" y="11.5547" width="145.695" height="213.922" filterUnits="userSpaceOnUse" color-interpolation-filters="sRGB">
<feFlood flood-opacity="0" result="BackgroundImageFix"/>
<feBlend mode="normal" in="SourceGraphic" in2="BackgroundImageFix" result="shape"/>
<feGaussianBlur stdDeviation="5.5" result="effect1_foregroundBlur_2_8"/>
</filter>
<filter id="filter1_f_2_8" x="156.207" y="157.397" width="161.231" height="163.278" filterUnits="userSpaceOnUse" color-interpolation-filters="sRGB">
<feFlood flood-opacity="0" result="BackgroundImageFix"/>
<feBlend mode="normal" in="SourceGraphic" in2="BackgroundImageFix" result="shape"/>
<feGaussianBlur stdDeviation="5.5" result="effect1_foregroundBlur_2_8"/>
</filter>
<filter id="filter2_f_2_8" x="-2.32812" y="-5.44531" width="235.164" height="261.789" filterUnits="userSpaceOnUse" color-interpolation-filters="sRGB">
<feFlood flood-opacity="0" result="BackgroundImageFix"/>
<feBlend mode="normal" in="SourceGraphic" in2="BackgroundImageFix" result="shape"/>
<feGaussianBlur stdDeviation="14" result="effect1_foregroundBlur_2_8"/>
</filter>
<filter id="filter3_f_2_8" x="24.6562" y="76.4531" width="172.32" height="173.984" filterUnits="userSpaceOnUse" color-interpolation-filters="sRGB">
<feFlood flood-opacity="0" result="BackgroundImageFix"/>
<feBlend mode="normal" in="SourceGraphic" in2="BackgroundImageFix" result="shape"/>
<feGaussianBlur stdDeviation="5.5" result="effect1_foregroundBlur_2_8"/>
</filter>
<filter id="filter4_f_2_8" x="21.3281" y="204.586" width="176.758" height="112.414" filterUnits="userSpaceOnUse" color-interpolation-filters="sRGB">
<feFlood flood-opacity="0" result="BackgroundImageFix"/>
<feBlend mode="normal" in="SourceGraphic" in2="BackgroundImageFix" result="shape"/>
<feGaussianBlur stdDeviation="5.5" result="effect1_foregroundBlur_2_8"/>
</filter>
<filter id="filter5_f_2_8" x="85.1172" y="151.336" width="111.859" height="91.6133" filterUnits="userSpaceOnUse" color-interpolation-filters="sRGB">
<feFlood flood-opacity="0" result="BackgroundImageFix"/>
<feBlend mode="normal" in="SourceGraphic" in2="BackgroundImageFix" result="shape"/>
<feGaussianBlur stdDeviation="5.5" result="effect1_foregroundBlur_2_8"/>
</filter>
<filter id="filter6_f_2_8" x="81.0852" y="176.471" width="115.124" height="105.67" filterUnits="userSpaceOnUse" color-interpolation-filters="sRGB">
<feFlood flood-opacity="0" result="BackgroundImageFix"/>
<feBlend mode="normal" in="SourceGraphic" in2="BackgroundImageFix" result="shape"/>
<feGaussianBlur stdDeviation="11" result="effect1_foregroundBlur_2_8"/>
</filter>
<filter id="filter7_f_2_8" x="23.0185" y="186.74" width="93.2598" height="81.8043" filterUnits="userSpaceOnUse" color-interpolation-filters="sRGB">
<feFlood flood-opacity="0" result="BackgroundImageFix"/>
<feBlend mode="normal" in="SourceGraphic" in2="BackgroundImageFix" result="shape"/>
<feGaussianBlur stdDeviation="11" result="effect1_foregroundBlur_2_8"/>
</filter>
<linearGradient id="paint0_linear_2_8" x1="189.258" y1="165.067" x2="244.614" y2="197.39" gradientUnits="userSpaceOnUse">
<stop stop-color="#008AD2"/>
<stop offset="0.510417" stop-color="#30B448"/>
<stop offset="1" stop-color="#5BB73C"/>
</linearGradient>
<linearGradient id="paint1_linear_2_8" x1="179.784" y1="246.17" x2="236.799" y2="206.038" gradientUnits="userSpaceOnUse">
<stop stop-color="#F6821F"/>
<stop offset="0.432292" stop-color="#FFC40E"/>
<stop offset="1" stop-color="#76BB36"/>
</linearGradient>
<linearGradient id="paint2_linear_2_8" x1="82.5983" y1="129.872" x2="206.901" y2="112.956" gradientUnits="userSpaceOnUse">
<stop stop-color="#3B7BB9"/>
<stop offset="1" stop-color="#0D8FC4"/>
</linearGradient>
<linearGradient id="paint3_linear_2_8" x1="102.773" y1="122.953" x2="88.3067" y2="257.46" gradientUnits="userSpaceOnUse">
<stop stop-color="#3380C0"/>
<stop offset="0.494792" stop-color="#7E69B1"/>
<stop offset="1" stop-color="#B6556C"/>
</linearGradient>
<linearGradient id="paint4_linear_2_8" x1="96.1516" y1="218.082" x2="134.152" y2="287.626" gradientUnits="userSpaceOnUse">
<stop stop-color="#B6556C"/>
<stop offset="0.411458" stop-color="#EF4023"/>
<stop offset="1" stop-color="#F6821F"/>
</linearGradient>
<linearGradient id="paint5_linear_2_8" x1="151.586" y1="173.43" x2="128.602" y2="241.491" gradientUnits="userSpaceOnUse">
<stop stop-color="#3380C0"/>
<stop offset="0.494792" stop-color="#8A66A3"/>
<stop offset="1" stop-color="#B6556C"/>
</linearGradient>
<linearGradient id="paint6_linear_2_8" x1="96.1702" y1="117.3" x2="96.1702" y2="141.251" gradientUnits="userSpaceOnUse">
<stop stop-color="#327AB5" stop-opacity="0"/>
<stop offset="0.520833" stop-color="#327AB5"/>
<stop offset="1" stop-color="#327AB5" stop-opacity="0"/>
</linearGradient>
<linearGradient id="paint7_linear_2_8" x1="270.241" y1="206.242" x2="268.804" y2="229.097" gradientUnits="userSpaceOnUse">
<stop offset="0.0104167" stop-color="#30B448" stop-opacity="0"/>
<stop offset="0.75" stop-color="#5BB73C"/>
<stop offset="1" stop-color="#30B448" stop-opacity="0"/>
</linearGradient>
<linearGradient id="paint8_linear_2_8" x1="134.34" y1="196.808" x2="132.157" y2="265.135" gradientUnits="userSpaceOnUse">
<stop stop-color="#946399"/>
<stop offset="0.0001" stop-color="#A05E89" stop-opacity="0.1"/>
<stop offset="0.427083" stop-color="#A45C82"/>
<stop offset="1" stop-color="#F35922"/>
</linearGradient>
<linearGradient id="paint9_linear_2_8" x1="70.506" y1="193.325" x2="68.7256" y2="249.044" gradientUnits="userSpaceOnUse">
<stop stop-color="#946399"/>
<stop offset="0.0001" stop-color="#A05E89" stop-opacity="0.1"/>
<stop offset="0.427083" stop-color="#A45C82"/>
<stop offset="1" stop-color="#D04E4D"/>
</linearGradient>
<clipPath id="clip0_2_8">
<rect x="29" y="22" width="284" height="284" rx="110" fill="white"/>
</clipPath>
</defs>
</svg>
