<svg width="796" height="346" viewBox="0 0 796 346" fill="none" xmlns="http://www.w3.org/2000/svg">
<rect width="796.2" height="345.016" fill="white"/>
<path d="M163.425 172.507L125.39 106.635C123.522 107.717 121.885 109.208 120.939 110.85L93.7222 158.04L88.8125 166.554C86.9175 169.833 86.9231 175.198 88.8143 178.475L118.451 229.853L120.943 234.175C121.887 235.815 123.522 237.304 125.39 238.384L163.425 172.507Z" fill="#3F00A5"/>
<path d="M125.39 106.635L163.425 172.507H190.047L164.314 127.933L190.947 127.914L216.698 172.507H241.32C241.32 170.404 240.863 168.309 239.967 166.685L215.802 124.825L207.725 110.844C205.832 107.566 201.186 104.882 197.404 104.882L131.259 104.884C129.369 104.886 127.261 105.558 125.39 106.635Z" fill="#A145F6" fill-opacity="0.75"/>
<path d="M207.725 234.171L218.144 216.133L239.952 178.364C240.858 176.737 241.32 174.627 241.32 172.507H216.698L190.949 217.098L164.316 217.079L190.045 172.505H163.425L125.39 238.381C127.261 239.457 129.366 240.132 131.259 240.132H197.404C201.186 240.133 205.838 237.448 207.725 234.171Z" fill="#8800FF"/>
<path d="M310.891 149.475C290.147 149.475 274.515 163.725 274.515 185.805C274.515 210.474 289.428 225.016 315.155 225.016C320.832 225.016 321.218 225.016 331.815 225.016L340.866 210.472C329.753 210.472 322.821 210.472 316.716 210.472C302.358 210.472 294.841 205.057 293.126 192.09H344.992V185.39C344.993 163.148 331.069 149.475 310.891 149.475ZM293.128 179.978C294.697 169.149 301.083 162.858 311.035 162.858C320.832 162.858 326.373 169.425 327.802 179.978H293.128ZM396.995 159.869C387.343 159.869 378.527 163.725 372.551 170.859C374.913 153.276 383.998 141.365 400.615 139.586C401.385 139.5 402.166 139.442 402.976 139.398C406.088 133.996 412.79 122.388 412.79 122.388C412.5 122.388 412.258 122.388 412.051 122.388C412.011 122.388 411.738 122.388 411.086 122.388C410.925 122.388 410.76 122.388 410.545 122.388C408.792 122.388 406.892 122.388 404.663 122.388C374.106 122.388 353.658 145.331 353.658 177.843C353.658 195.664 359.627 208.48 367.584 215.749C374.536 222.17 384.21 225.018 393.161 225.018C413.618 225.018 429.104 210.907 429.104 191.661C429.108 173.132 415.195 159.869 396.995 159.869ZM392.735 209.624C381.652 209.624 373.98 201.211 372.271 186.815C377.68 177.965 385.625 174.276 393.018 174.276C402.978 174.276 410.066 181.686 410.066 191.942C410.066 202.499 402.679 209.624 392.735 209.624Z" fill="#A145F6"/>
<path d="M495.063 158.821C489.24 151.555 481.278 147.567 471.896 147.567C452.289 147.567 439.221 163.663 439.221 185.332C439.221 206.858 452.152 223.11 471.896 223.11C481.278 223.11 489.24 219.122 495.063 211.854V221.68H513.965V121.906H495.063V158.821ZM495.063 196.884C490.934 202.876 485.116 207.147 477.864 207.147C466.221 207.147 457.982 197.876 457.982 185.332C457.982 172.78 465.936 163.53 477.583 163.53C484.689 163.53 490.657 167.657 495.063 173.788V196.884ZM557.261 149.475C552.559 149.475 551.249 149.475 539.09 149.475L531.125 164.013C542.496 164.013 548.591 164.013 552.709 164.013C564.221 164.013 569.48 169.855 569.48 178.83V186.098C563.931 179.827 556.975 177.411 549.164 177.411C533.81 177.411 522.863 187.676 522.863 201.211C522.863 214.755 533.669 225.018 548.876 225.018C557.119 225.018 564.221 221.599 569.48 215.036V223.588H588.377V178.117C588.377 159.719 576.575 149.475 557.261 149.475ZM569.48 204.634C564.512 210.907 559.533 212.749 554.698 212.749C547.163 212.749 541.487 207.767 541.487 201.211C541.487 194.655 547.161 189.674 554.838 189.674C559.531 189.674 564.51 191.376 569.478 197.788V204.634H569.48ZM677.68 149.475C673.001 149.475 671.684 149.475 659.515 149.475L651.551 164.013C662.921 164.013 669.02 164.013 673.141 164.013C684.642 164.013 689.913 169.855 689.913 178.83V186.098C684.365 179.827 677.39 177.411 669.587 177.411C654.242 177.411 643.289 187.676 643.289 201.211C643.289 214.755 654.092 225.018 669.285 225.018C677.541 225.018 684.642 221.599 689.915 215.036V223.588H708.809V178.117C708.807 159.719 697.008 149.475 677.68 149.475ZM689.913 204.634C684.93 210.907 679.955 212.749 675.128 212.749C667.598 212.749 661.906 207.767 661.906 201.211C661.906 194.655 667.596 189.674 675.274 189.674C679.953 189.674 684.929 191.376 689.911 197.788V204.634H689.913ZM626.23 208.626C628.09 208.626 632.915 208.626 638.608 208.626L628.582 225.018C623.744 225.018 628.09 225.018 623.403 225.018C607.056 225.018 597.672 215.184 597.672 199.498V131.513H616.568V149.475H638.383L629.949 163.97H616.568V196.796C616.568 204.634 619.555 208.626 626.23 208.626Z" fill="#3F00A5"/>
</svg>
